# xmcd CD database file
#
# Track frame offsets:
#	150
#	27592
#	41383
#	79340
#	100624
#	111263
#	139164
#	160960
#
# Disc length: 2654 seconds
#
# Revision: 0
# Processed by: cddbd v1.5.1PL0 Copyright (c) Steve Scherf et al.
# Submitted via: CDex 1.51
#
DISCID=630a5c08
DTITLE=Lonnie Liston Smith - Live!
DYEAR=1977
DGENRE=Jazz
TTITLE0=Sorceress
TTITLE1=Prelude
TTITLE2=Expansions
TTITLE3=My Love
TTITLE4=Visions Of A New World (Phase One)
TTITLE5=Visions Of A New World (Phase Two)
TTITLE6=Watercolors
TTITLE7=Sunset
EXTD=YEAR: 1977
EXTT0=
EXTT1=
EXTT2=
EXTT3=
EXTT4=
EXTT5=
EXTT6=
EXTT7=
PLAYORDER=
